<mxfile host="app.diagrams.net" agent="Mozilla/5.0 (Macintosh; Intel Mac OS X 10_15_7) AppleWebKit/537.36 (KHTML, like Gecko) Chrome/128.0.0.0 Safari/537.36" version="24.7.16">
  <diagram name="第 1 页" id="nFxCAqPihgp79klYT4IB">
    <mxGraphModel dx="753" dy="454" grid="1" gridSize="10" guides="1" tooltips="1" connect="1" arrows="1" fold="1" page="1" pageScale="1" pageWidth="827" pageHeight="1169" math="0" shadow="0">
      <root>
        <mxCell id="0" />
        <mxCell id="1" parent="0" />
        <mxCell id="pGws3hwCy2Y-L8Se-ih5-21" style="edgeStyle=orthogonalEdgeStyle;rounded=0;orthogonalLoop=1;jettySize=auto;html=1;exitX=0.5;exitY=0;exitDx=0;exitDy=0;entryX=0.5;entryY=1;entryDx=0;entryDy=0;" edge="1" parent="1" source="pGws3hwCy2Y-L8Se-ih5-1" target="pGws3hwCy2Y-L8Se-ih5-15">
          <mxGeometry relative="1" as="geometry" />
        </mxCell>
        <mxCell id="pGws3hwCy2Y-L8Se-ih5-1" value="S_IDLE" style="ellipse;whiteSpace=wrap;html=1;aspect=fixed;" vertex="1" parent="1">
          <mxGeometry x="200" y="400" width="80" height="80" as="geometry" />
        </mxCell>
        <mxCell id="pGws3hwCy2Y-L8Se-ih5-26" style="edgeStyle=orthogonalEdgeStyle;rounded=0;orthogonalLoop=1;jettySize=auto;html=1;exitX=1;exitY=1;exitDx=0;exitDy=0;entryX=1;entryY=0;entryDx=0;entryDy=0;" edge="1" parent="1" source="pGws3hwCy2Y-L8Se-ih5-2" target="pGws3hwCy2Y-L8Se-ih5-3">
          <mxGeometry relative="1" as="geometry" />
        </mxCell>
        <mxCell id="pGws3hwCy2Y-L8Se-ih5-2" value="S_MONT" style="ellipse;whiteSpace=wrap;html=1;aspect=fixed;" vertex="1" parent="1">
          <mxGeometry x="440" y="240" width="80" height="80" as="geometry" />
        </mxCell>
        <mxCell id="pGws3hwCy2Y-L8Se-ih5-27" style="edgeStyle=orthogonalEdgeStyle;rounded=0;orthogonalLoop=1;jettySize=auto;html=1;exitX=0;exitY=0;exitDx=0;exitDy=0;entryX=0;entryY=1;entryDx=0;entryDy=0;" edge="1" parent="1" source="pGws3hwCy2Y-L8Se-ih5-3" target="pGws3hwCy2Y-L8Se-ih5-2">
          <mxGeometry relative="1" as="geometry" />
        </mxCell>
        <mxCell id="pGws3hwCy2Y-L8Se-ih5-3" value="S_CALC" style="ellipse;whiteSpace=wrap;html=1;aspect=fixed;" vertex="1" parent="1">
          <mxGeometry x="440" y="400" width="80" height="80" as="geometry" />
        </mxCell>
        <mxCell id="pGws3hwCy2Y-L8Se-ih5-8" value="" style="endArrow=classic;html=1;rounded=0;entryX=1;entryY=0.5;entryDx=0;entryDy=0;exitX=0;exitY=0.5;exitDx=0;exitDy=0;" edge="1" parent="1" source="pGws3hwCy2Y-L8Se-ih5-3" target="pGws3hwCy2Y-L8Se-ih5-1">
          <mxGeometry width="50" height="50" relative="1" as="geometry">
            <mxPoint x="410" y="410" as="sourcePoint" />
            <mxPoint x="460" y="360" as="targetPoint" />
          </mxGeometry>
        </mxCell>
        <mxCell id="pGws3hwCy2Y-L8Se-ih5-12" value="" style="curved=1;endArrow=classic;html=1;rounded=0;exitX=0;exitY=0;exitDx=0;exitDy=0;entryX=1;entryY=0;entryDx=0;entryDy=0;" edge="1" parent="1" source="pGws3hwCy2Y-L8Se-ih5-2" target="pGws3hwCy2Y-L8Se-ih5-2">
          <mxGeometry width="50" height="50" relative="1" as="geometry">
            <mxPoint x="490" y="140" as="sourcePoint" />
            <mxPoint x="540" y="90" as="targetPoint" />
            <Array as="points">
              <mxPoint x="440" y="200" />
              <mxPoint x="520" y="200" />
            </Array>
          </mxGeometry>
        </mxCell>
        <mxCell id="pGws3hwCy2Y-L8Se-ih5-14" value="counter = 256" style="text;html=1;align=center;verticalAlign=middle;resizable=0;points=[];autosize=1;strokeColor=none;fillColor=none;" vertex="1" parent="1">
          <mxGeometry x="314" y="440" width="100" height="30" as="geometry" />
        </mxCell>
        <mxCell id="pGws3hwCy2Y-L8Se-ih5-19" style="edgeStyle=orthogonalEdgeStyle;rounded=0;orthogonalLoop=1;jettySize=auto;html=1;exitX=1;exitY=0.5;exitDx=0;exitDy=0;entryX=0;entryY=0.5;entryDx=0;entryDy=0;" edge="1" parent="1" source="pGws3hwCy2Y-L8Se-ih5-15" target="pGws3hwCy2Y-L8Se-ih5-2">
          <mxGeometry relative="1" as="geometry" />
        </mxCell>
        <mxCell id="pGws3hwCy2Y-L8Se-ih5-15" value="S_PREP" style="ellipse;whiteSpace=wrap;html=1;aspect=fixed;" vertex="1" parent="1">
          <mxGeometry x="200" y="240" width="80" height="80" as="geometry" />
        </mxCell>
        <mxCell id="pGws3hwCy2Y-L8Se-ih5-16" value="" style="curved=1;endArrow=classic;html=1;rounded=0;" edge="1" parent="1">
          <mxGeometry width="50" height="50" relative="1" as="geometry">
            <mxPoint x="212" y="250" as="sourcePoint" />
            <mxPoint x="270" y="252" as="targetPoint" />
            <Array as="points">
              <mxPoint x="200" y="200" />
              <mxPoint x="280" y="200" />
            </Array>
          </mxGeometry>
        </mxCell>
        <mxCell id="pGws3hwCy2Y-L8Se-ih5-18" value="prep_finished = 0" style="text;html=1;align=center;verticalAlign=middle;resizable=0;points=[];autosize=1;strokeColor=none;fillColor=none;" vertex="1" parent="1">
          <mxGeometry x="180" y="170" width="120" height="30" as="geometry" />
        </mxCell>
        <mxCell id="pGws3hwCy2Y-L8Se-ih5-20" value="prep_finished = 1" style="text;html=1;align=center;verticalAlign=middle;resizable=0;points=[];autosize=1;strokeColor=none;fillColor=none;" vertex="1" parent="1">
          <mxGeometry x="300" y="250" width="120" height="30" as="geometry" />
        </mxCell>
        <mxCell id="pGws3hwCy2Y-L8Se-ih5-22" value="i_start = 1" style="text;html=1;align=center;verticalAlign=middle;resizable=0;points=[];autosize=1;strokeColor=none;fillColor=none;" vertex="1" parent="1">
          <mxGeometry x="160" y="350" width="80" height="30" as="geometry" />
        </mxCell>
        <mxCell id="pGws3hwCy2Y-L8Se-ih5-24" value="" style="curved=1;endArrow=classic;html=1;rounded=0;entryX=0;entryY=1;entryDx=0;entryDy=0;exitX=1;exitY=1;exitDx=0;exitDy=0;" edge="1" parent="1" source="pGws3hwCy2Y-L8Se-ih5-1" target="pGws3hwCy2Y-L8Se-ih5-1">
          <mxGeometry width="50" height="50" relative="1" as="geometry">
            <mxPoint x="280" y="530" as="sourcePoint" />
            <mxPoint x="210" y="500" as="targetPoint" />
            <Array as="points">
              <mxPoint x="280" y="520" />
              <mxPoint x="200" y="520" />
            </Array>
          </mxGeometry>
        </mxCell>
        <mxCell id="pGws3hwCy2Y-L8Se-ih5-25" value="i_start = 0" style="text;html=1;align=center;verticalAlign=middle;resizable=0;points=[];autosize=1;strokeColor=none;fillColor=none;" vertex="1" parent="1">
          <mxGeometry x="200" y="530" width="80" height="30" as="geometry" />
        </mxCell>
        <mxCell id="pGws3hwCy2Y-L8Se-ih5-28" value="counter &amp;lt; 256" style="text;html=1;align=center;verticalAlign=middle;resizable=0;points=[];autosize=1;strokeColor=none;fillColor=none;" vertex="1" parent="1">
          <mxGeometry x="350" y="350" width="100" height="30" as="geometry" />
        </mxCell>
        <mxCell id="pGws3hwCy2Y-L8Se-ih5-29" value="mont_Nmt_finished &amp;amp; mont_Ntt_finished = 1" style="text;html=1;align=center;verticalAlign=middle;resizable=0;points=[];autosize=1;strokeColor=none;fillColor=none;" vertex="1" parent="1">
          <mxGeometry x="500" y="340" width="260" height="30" as="geometry" />
        </mxCell>
        <mxCell id="pGws3hwCy2Y-L8Se-ih5-30" value="mont_Nmt_finished &amp;amp; mont_Ntt_finished = 0" style="text;html=1;align=center;verticalAlign=middle;resizable=0;points=[];autosize=1;strokeColor=none;fillColor=none;" vertex="1" parent="1">
          <mxGeometry x="360" y="170" width="260" height="30" as="geometry" />
        </mxCell>
      </root>
    </mxGraphModel>
  </diagram>
</mxfile>
